<svg xmlns="http://www.w3.org/2000/svg" xmlns:xlink="http://www.w3.org/1999/xlink" width="500" zoomAndPan="magnify" viewBox="0 0 375 187.499995" height="250" preserveAspectRatio="xMidYMid meet" version="1.0"><defs><g/><clipPath id="b716d1430e"><path d="M 0.5 0 L 374.5 0 L 374.5 187 L 0.5 187 Z M 0.5 0 " clip-rule="nonzero"/></clipPath><clipPath id="9565a03f41"><path d="M 102 1 L 271 1 L 271 124.167969 L 102 124.167969 Z M 102 1 " clip-rule="nonzero"/></clipPath></defs><g clip-path="url(#b716d1430e)"><path fill="#ffffff" d="M 0.5 0 L 374.5 0 L 374.5 194.480469 L 0.5 194.480469 Z M 0.5 0 " fill-opacity="1" fill-rule="nonzero"/><path fill="#ffffff" d="M 0.5 0 L 374.5 0 L 374.5 187 L 0.5 187 Z M 0.5 0 " fill-opacity="1" fill-rule="nonzero"/><path fill="#ffffff" d="M 0.5 0 L 374.5 0 L 374.5 187 L 0.5 187 Z M 0.5 0 " fill-opacity="1" fill-rule="nonzero"/></g><g fill="#567876" fill-opacity="1"><g transform="translate(27.818421, 173.588073)"><g><path d="M 32.71875 -12.46875 C 32.425781 -8.4375 30.9375 -5.265625 28.25 -2.953125 C 25.570312 -0.640625 22.039062 0.515625 17.65625 0.515625 C 12.863281 0.515625 9.085938 -1.097656 6.328125 -4.328125 C 3.578125 -7.554688 2.203125 -11.988281 2.203125 -17.625 L 2.203125 -19.921875 C 2.203125 -23.515625 2.835938 -26.679688 4.109375 -29.421875 C 5.378906 -32.171875 7.191406 -34.273438 9.546875 -35.734375 C 11.898438 -37.203125 14.640625 -37.9375 17.765625 -37.9375 C 22.078125 -37.9375 25.550781 -36.78125 28.1875 -34.46875 C 30.832031 -32.15625 32.359375 -28.910156 32.765625 -24.734375 L 25.0625 -24.734375 C 24.875 -27.140625 24.203125 -28.882812 23.046875 -29.96875 C 21.890625 -31.0625 20.128906 -31.609375 17.765625 -31.609375 C 15.191406 -31.609375 13.265625 -30.6875 11.984375 -28.84375 C 10.710938 -27.007812 10.0625 -24.15625 10.03125 -20.28125 L 10.03125 -17.453125 C 10.03125 -13.410156 10.640625 -10.453125 11.859375 -8.578125 C 13.085938 -6.710938 15.019531 -5.78125 17.65625 -5.78125 C 20.039062 -5.78125 21.816406 -6.320312 22.984375 -7.40625 C 24.160156 -8.5 24.835938 -10.1875 25.015625 -12.46875 Z M 32.71875 -12.46875 "/></g></g></g><g fill="#567876" fill-opacity="1"><g transform="translate(62.257364, 173.588073)"><g><path d="M 10.6875 0 L 3.234375 0 L 3.234375 -27.8125 L 10.6875 -27.8125 Z M 2.796875 -35.015625 C 2.796875 -36.117188 3.164062 -37.03125 3.90625 -37.75 C 4.65625 -38.476562 5.675781 -38.84375 6.96875 -38.84375 C 8.238281 -38.84375 9.25 -38.476562 10 -37.75 C 10.75 -37.03125 11.125 -36.117188 11.125 -35.015625 C 11.125 -33.878906 10.742188 -32.953125 9.984375 -32.234375 C 9.222656 -31.515625 8.21875 -31.15625 6.96875 -31.15625 C 5.71875 -31.15625 4.707031 -31.515625 3.9375 -32.234375 C 3.175781 -32.953125 2.796875 -33.878906 2.796875 -35.015625 Z M 2.796875 -35.015625 "/></g></g></g><g fill="#567876" fill-opacity="1"><g transform="translate(76.212846, 173.588073)"><g><path d="M 27.890625 -13.65625 C 27.890625 -9.363281 26.914062 -5.925781 24.96875 -3.34375 C 23.019531 -0.769531 20.394531 0.515625 17.09375 0.515625 C 14.28125 0.515625 12.007812 -0.460938 10.28125 -2.421875 L 10.28125 10.6875 L 2.859375 10.6875 L 2.859375 -27.8125 L 9.734375 -27.8125 L 10 -25.09375 C 11.800781 -27.25 14.148438 -28.328125 17.046875 -28.328125 C 20.472656 -28.328125 23.132812 -27.054688 25.03125 -24.515625 C 26.9375 -21.984375 27.890625 -18.488281 27.890625 -14.03125 Z M 20.453125 -14.1875 C 20.453125 -16.769531 19.992188 -18.765625 19.078125 -20.171875 C 18.160156 -21.578125 16.832031 -22.28125 15.09375 -22.28125 C 12.757812 -22.28125 11.15625 -21.390625 10.28125 -19.609375 L 10.28125 -8.21875 C 11.1875 -6.382812 12.804688 -5.46875 15.140625 -5.46875 C 18.679688 -5.46875 20.453125 -8.375 20.453125 -14.1875 Z M 20.453125 -14.1875 "/></g></g></g><g fill="#567876" fill-opacity="1"><g transform="translate(105.845757, 173.588073)"><g><path d="M 10.09375 -24.78125 C 12.070312 -27.144531 14.550781 -28.328125 17.53125 -28.328125 C 23.5625 -28.328125 26.617188 -24.820312 26.703125 -17.8125 L 26.703125 0 L 19.28125 0 L 19.28125 -17.609375 C 19.28125 -19.203125 18.9375 -20.378906 18.25 -21.140625 C 17.5625 -21.898438 16.421875 -22.28125 14.828125 -22.28125 C 12.648438 -22.28125 11.070312 -21.441406 10.09375 -19.765625 L 10.09375 0 L 2.671875 0 L 2.671875 -39.484375 L 10.09375 -39.484375 Z M 10.09375 -24.78125 "/></g></g></g><g fill="#567876" fill-opacity="1"><g transform="translate(135.298763, 173.588073)"><g><path d="M 15.65625 0.515625 C 11.570312 0.515625 8.25 -0.734375 5.6875 -3.234375 C 3.125 -5.734375 1.84375 -9.066406 1.84375 -13.234375 L 1.84375 -13.953125 C 1.84375 -16.742188 2.382812 -19.238281 3.46875 -21.4375 C 4.550781 -23.644531 6.082031 -25.34375 8.0625 -26.53125 C 10.039062 -27.726562 12.296875 -28.328125 14.828125 -28.328125 C 18.628906 -28.328125 21.625 -27.125 23.8125 -24.71875 C 26 -22.320312 27.09375 -18.921875 27.09375 -14.515625 L 27.09375 -11.484375 L 9.375 -11.484375 C 9.613281 -9.671875 10.335938 -8.210938 11.546875 -7.109375 C 12.753906 -6.015625 14.285156 -5.46875 16.140625 -5.46875 C 19.003906 -5.46875 21.238281 -6.503906 22.84375 -8.578125 L 26.5 -4.5 C 25.382812 -2.925781 23.875 -1.695312 21.96875 -0.8125 C 20.070312 0.0703125 17.96875 0.515625 15.65625 0.515625 Z M 14.8125 -22.3125 C 13.332031 -22.3125 12.132812 -21.8125 11.21875 -20.8125 C 10.300781 -19.820312 9.710938 -18.398438 9.453125 -16.546875 L 19.796875 -16.546875 L 19.796875 -17.140625 C 19.753906 -18.785156 19.304688 -20.054688 18.453125 -20.953125 C 17.597656 -21.859375 16.382812 -22.3125 14.8125 -22.3125 Z M 14.8125 -22.3125 "/></g></g></g><g fill="#567876" fill-opacity="1"><g transform="translate(163.749441, 173.588073)"><g><path d="M 18.484375 -20.84375 C 17.472656 -20.976562 16.582031 -21.046875 15.8125 -21.046875 C 13 -21.046875 11.15625 -20.097656 10.28125 -18.203125 L 10.28125 0 L 2.859375 0 L 2.859375 -27.8125 L 9.875 -27.8125 L 10.078125 -24.5 C 11.566406 -27.050781 13.628906 -28.328125 16.265625 -28.328125 C 17.085938 -28.328125 17.859375 -28.210938 18.578125 -27.984375 Z M 18.484375 -20.84375 "/></g></g></g><g fill="#567876" fill-opacity="1"><g transform="translate(182.947867, 173.588073)"><g><path d="M 22.75 -9.8125 C 22.75 -11.269531 22.234375 -12.390625 21.203125 -13.171875 C 20.171875 -13.953125 18.316406 -14.773438 15.640625 -15.640625 C 12.972656 -16.503906 10.859375 -17.359375 9.296875 -18.203125 C 5.054688 -20.492188 2.9375 -23.585938 2.9375 -27.484375 C 2.9375 -29.503906 3.503906 -31.304688 4.640625 -32.890625 C 5.773438 -34.472656 7.410156 -35.707031 9.546875 -36.59375 C 11.679688 -37.488281 14.078125 -37.9375 16.734375 -37.9375 C 19.410156 -37.9375 21.789062 -37.453125 23.875 -36.484375 C 25.96875 -35.515625 27.59375 -34.144531 28.75 -32.375 C 29.90625 -30.613281 30.484375 -28.613281 30.484375 -26.375 L 22.765625 -26.375 C 22.765625 -28.082031 22.222656 -29.410156 21.140625 -30.359375 C 20.066406 -31.316406 18.554688 -31.796875 16.609375 -31.796875 C 14.722656 -31.796875 13.253906 -31.394531 12.203125 -30.59375 C 11.160156 -29.800781 10.640625 -28.753906 10.640625 -27.453125 C 10.640625 -26.234375 11.25 -25.210938 12.46875 -24.390625 C 13.695312 -23.566406 15.503906 -22.796875 17.890625 -22.078125 C 22.273438 -20.753906 25.46875 -19.113281 27.46875 -17.15625 C 29.476562 -15.207031 30.484375 -12.78125 30.484375 -9.875 C 30.484375 -6.632812 29.257812 -4.09375 26.8125 -2.25 C 24.363281 -0.40625 21.0625 0.515625 16.90625 0.515625 C 14.03125 0.515625 11.410156 -0.0078125 9.046875 -1.0625 C 6.679688 -2.113281 4.878906 -3.554688 3.640625 -5.390625 C 2.398438 -7.222656 1.78125 -9.347656 1.78125 -11.765625 L 9.515625 -11.765625 C 9.515625 -7.640625 11.976562 -5.578125 16.90625 -5.578125 C 18.738281 -5.578125 20.171875 -5.945312 21.203125 -6.6875 C 22.234375 -7.4375 22.75 -8.476562 22.75 -9.8125 Z M 22.75 -9.8125 "/></g></g></g><g fill="#567876" fill-opacity="1"><g transform="translate(215.305062, 173.588073)"><g><path d="M 9.6875 -27.8125 L 9.921875 -24.59375 C 11.910156 -27.082031 14.578125 -28.328125 17.921875 -28.328125 C 20.867188 -28.328125 23.0625 -27.460938 24.5 -25.734375 C 25.9375 -24.003906 26.671875 -21.414062 26.703125 -17.96875 L 26.703125 0 L 19.28125 0 L 19.28125 -17.78125 C 19.28125 -19.363281 18.9375 -20.507812 18.25 -21.21875 C 17.5625 -21.925781 16.421875 -22.28125 14.828125 -22.28125 C 12.734375 -22.28125 11.164062 -21.390625 10.125 -19.609375 L 10.125 0 L 2.703125 0 L 2.703125 -27.8125 Z M 9.6875 -27.8125 "/></g></g></g><g fill="#567876" fill-opacity="1"><g transform="translate(244.783779, 173.588073)"><g><path d="M 10.6875 0 L 3.234375 0 L 3.234375 -27.8125 L 10.6875 -27.8125 Z M 2.796875 -35.015625 C 2.796875 -36.117188 3.164062 -37.03125 3.90625 -37.75 C 4.65625 -38.476562 5.675781 -38.84375 6.96875 -38.84375 C 8.238281 -38.84375 9.25 -38.476562 10 -37.75 C 10.75 -37.03125 11.125 -36.117188 11.125 -35.015625 C 11.125 -33.878906 10.742188 -32.953125 9.984375 -32.234375 C 9.222656 -31.515625 8.21875 -31.15625 6.96875 -31.15625 C 5.71875 -31.15625 4.707031 -31.515625 3.9375 -32.234375 C 3.175781 -32.953125 2.796875 -33.878906 2.796875 -35.015625 Z M 2.796875 -35.015625 "/></g></g></g><g fill="#567876" fill-opacity="1"><g transform="translate(258.739271, 173.588073)"><g><path d="M 4.890625 0 L 4.890625 -22.359375 L 0.75 -22.359375 L 0.75 -27.8125 L 4.890625 -27.8125 L 4.890625 -30.171875 C 4.890625 -33.296875 5.78125 -35.71875 7.5625 -37.4375 C 9.351562 -39.15625 11.863281 -40.015625 15.09375 -40.015625 C 16.113281 -40.015625 17.367188 -39.84375 18.859375 -39.5 L 18.796875 -33.75 C 18.171875 -33.90625 17.414062 -33.984375 16.53125 -33.984375 C 13.738281 -33.984375 12.34375 -32.671875 12.34375 -30.046875 L 12.34375 -27.8125 L 17.859375 -27.8125 L 17.859375 -22.359375 L 12.34375 -22.359375 L 12.34375 0 Z M 4.890625 0 "/></g></g></g><g fill="#567876" fill-opacity="1"><g transform="translate(277.603587, 173.588073)"><g><path d="M 4.890625 0 L 4.890625 -22.359375 L 0.75 -22.359375 L 0.75 -27.8125 L 4.890625 -27.8125 L 4.890625 -30.171875 C 4.890625 -33.296875 5.78125 -35.71875 7.5625 -37.4375 C 9.351562 -39.15625 11.863281 -40.015625 15.09375 -40.015625 C 16.113281 -40.015625 17.367188 -39.84375 18.859375 -39.5 L 18.796875 -33.75 C 18.171875 -33.90625 17.414062 -33.984375 16.53125 -33.984375 C 13.738281 -33.984375 12.34375 -32.671875 12.34375 -30.046875 L 12.34375 -27.8125 L 17.859375 -27.8125 L 17.859375 -22.359375 L 12.34375 -22.359375 L 12.34375 0 Z M 4.890625 0 "/></g></g></g><g fill="#567876" fill-opacity="1"><g transform="translate(296.467903, 173.588073)"><g><path d="M 15.65625 0.515625 C 11.570312 0.515625 8.25 -0.734375 5.6875 -3.234375 C 3.125 -5.734375 1.84375 -9.066406 1.84375 -13.234375 L 1.84375 -13.953125 C 1.84375 -16.742188 2.382812 -19.238281 3.46875 -21.4375 C 4.550781 -23.644531 6.082031 -25.34375 8.0625 -26.53125 C 10.039062 -27.726562 12.296875 -28.328125 14.828125 -28.328125 C 18.628906 -28.328125 21.625 -27.125 23.8125 -24.71875 C 26 -22.320312 27.09375 -18.921875 27.09375 -14.515625 L 27.09375 -11.484375 L 9.375 -11.484375 C 9.613281 -9.671875 10.335938 -8.210938 11.546875 -7.109375 C 12.753906 -6.015625 14.285156 -5.46875 16.140625 -5.46875 C 19.003906 -5.46875 21.238281 -6.503906 22.84375 -8.578125 L 26.5 -4.5 C 25.382812 -2.925781 23.875 -1.695312 21.96875 -0.8125 C 20.070312 0.0703125 17.96875 0.515625 15.65625 0.515625 Z M 14.8125 -22.3125 C 13.332031 -22.3125 12.132812 -21.8125 11.21875 -20.8125 C 10.300781 -19.820312 9.710938 -18.398438 9.453125 -16.546875 L 19.796875 -16.546875 L 19.796875 -17.140625 C 19.753906 -18.785156 19.304688 -20.054688 18.453125 -20.953125 C 17.597656 -21.859375 16.382812 -22.3125 14.8125 -22.3125 Z M 14.8125 -22.3125 "/></g></g></g><g fill="#567876" fill-opacity="1"><g transform="translate(324.918592, 173.588073)"><g><path d="M 18.484375 -20.84375 C 17.472656 -20.976562 16.582031 -21.046875 15.8125 -21.046875 C 13 -21.046875 11.15625 -20.097656 10.28125 -18.203125 L 10.28125 0 L 2.859375 0 L 2.859375 -27.8125 L 9.875 -27.8125 L 10.078125 -24.5 C 11.566406 -27.050781 13.628906 -28.328125 16.265625 -28.328125 C 17.085938 -28.328125 17.859375 -28.210938 18.578125 -27.984375 Z M 18.484375 -20.84375 "/></g></g></g><g fill="#567876" fill-opacity="1"><g transform="translate(344.107709, 173.588073)"><g/></g></g><g clip-path="url(#9565a03f41)"><path fill="#ffbf00" d="M 130.496094 50.292969 C 129.441406 52.484375 128.441406 54.933594 127.503906 57.683594 C 127.40625 57.964844 127.347656 58.25 127.316406 58.535156 C 127.101562 59.582031 127.15625 60.699219 127.542969 61.777344 L 132.421875 75.296875 L 129.304688 83.234375 C 129.109375 83.726562 128.988281 84.226562 128.929688 84.730469 L 119.71875 87.207031 C 117.023438 87.933594 115.1875 90.414062 115.277344 93.195312 L 115.976562 114.050781 C 116.046875 116.171875 117.238281 118.097656 119.105469 119.113281 L 126.773438 123.285156 C 127.6875 123.785156 128.671875 124.019531 129.644531 124.019531 C 131.773438 124.019531 133.835938 122.886719 134.929688 120.894531 C 136.515625 117.988281 135.445312 114.347656 132.527344 112.761719 L 127.875 110.230469 L 127.628906 102.859375 L 142.894531 119.273438 C 143.449219 119.871094 144.125 120.351562 144.875 120.679688 L 151.324219 123.519531 C 152.117188 123.867188 152.9375 124.03125 153.75 124.03125 C 156.058594 124.03125 158.257812 122.699219 159.25 120.453125 C 160.589844 117.425781 159.214844 113.886719 156.179688 112.550781 L 150.859375 110.210938 L 139.214844 97.691406 L 146.773438 87.765625 L 159.535156 75.722656 C 164.953125 80.144531 168.84375 86.90625 187.378906 91.964844 C 189.929688 92.664062 192.359375 93.144531 194.683594 93.453125 L 194.984375 95.761719 L 198.144531 117.234375 C 198.382812 118.851562 199.394531 120.246094 200.859375 120.976562 L 206.171875 123.628906 C 206.890625 123.984375 207.65625 124.15625 208.410156 124.15625 C 210.074219 124.15625 211.691406 123.324219 212.640625 121.839844 C 214.015625 119.675781 213.53125 116.828125 211.515625 115.242188 L 209.507812 113.660156 L 207.125 95.503906 L 206.933594 93.507812 C 208.238281 93.335938 209.480469 93.105469 210.664062 92.839844 L 209.980469 97.1875 C 209.714844 98.871094 210.328125 100.570312 211.609375 101.703125 L 225.175781 113.679688 L 224.863281 117.632812 C 224.65625 120.320312 226.617188 122.6875 229.300781 122.988281 C 229.492188 123.007812 229.679688 123.019531 229.863281 123.019531 C 232.320312 123.019531 234.453125 121.222656 234.816406 118.742188 L 235.828125 111.804688 C 236.046875 110.289062 235.5625 108.761719 234.507812 107.648438 L 223.621094 96.183594 L 226.171875 90.710938 C 231.011719 91.558594 241.914062 92.125 242.605469 92.316406 C 243.382812 92.527344 247.835938 97.609375 248.074219 100.011719 C 248.3125 102.414062 253.1875 110.140625 253.1875 110.140625 C 253.1875 110.140625 257.746094 111.125 257.132812 110.511719 C 256.515625 109.898438 251.65625 96.6875 251.464844 95.746094 C 251.277344 94.804688 251.738281 94.992188 253.039062 95.34375 C 254.339844 95.699219 255.625 103.902344 256.265625 105.859375 C 256.90625 107.8125 263.238281 111.203125 263.238281 111.203125 L 265.199219 111.019531 C 265.566406 111.460938 266.152344 111.695312 266.757812 111.574219 C 267.628906 111.398438 268.195312 110.550781 268.019531 109.679688 C 267.972656 109.445312 267.871094 109.230469 267.734375 109.046875 L 266.882812 92.082031 L 270.511719 86.164062 C 270.511719 86.164062 269.472656 81.761719 267.410156 75.804688 C 267.246094 75.324219 266.992188 74.824219 266.679688 74.320312 C 269.109375 69.785156 267.28125 64.925781 265.972656 62.292969 C 265.6875 61.722656 265.265625 61.34375 264.753906 61.101562 C 262.691406 60.128906 259.152344 61.476562 257.136719 62.332031 C 255.441406 63.046875 253.96875 66.71875 254.371094 68.871094 C 252.425781 68.585938 252.640625 65.515625 253.703125 63.207031 C 252.101562 62.183594 251.027344 61.5625 251.027344 61.5625 L 219.828125 44.484375 L 218.03125 53.695312 L 214.894531 44.28125 L 200.660156 44.824219 C 195.589844 44.402344 190.714844 43.417969 186.074219 42.210938 C 176.796875 37.761719 157.628906 30.363281 140.78125 35.410156 C 140.207031 35.785156 139.667969 36.171875 139.152344 36.570312 C 126.757812 37.578125 116.210938 37.804688 114.085938 27.300781 C 110.679688 10.472656 118.246094 3.90625 113.511719 1.933594 C 108.773438 -0.0390625 96.941406 20.164062 105.285156 34.878906 C 112.347656 47.339844 122.511719 49.503906 130.496094 50.292969 Z M 262.792969 89.46875 C 261.816406 89.667969 260.863281 89.035156 260.664062 88.058594 C 260.46875 87.082031 261.101562 86.132812 262.082031 85.9375 C 263.0625 85.742188 264.011719 86.371094 264.210938 87.347656 C 264.40625 88.324219 263.769531 89.273438 262.792969 89.46875 Z M 262.792969 89.46875 " fill-opacity="1" fill-rule="nonzero"/></g><path fill="#ffbf00" d="M 268.921875 115.4375 C 269.035156 115.832031 269.445312 116.058594 269.839844 115.945312 C 271.535156 115.457031 272.726562 114.574219 273.386719 113.320312 C 274.40625 111.386719 273.71875 109.304688 273.691406 109.214844 C 273.558594 108.828125 273.140625 108.621094 272.753906 108.75 C 272.726562 108.757812 272.699219 108.769531 272.675781 108.78125 C 272.335938 108.933594 272.164062 109.324219 272.28125 109.683594 C 272.285156 109.699219 272.789062 111.277344 272.066406 112.644531 C 271.601562 113.519531 270.710938 114.152344 269.429688 114.519531 C 269.035156 114.632812 268.804688 115.046875 268.921875 115.4375 Z M 268.921875 115.4375 " fill-opacity="1" fill-rule="nonzero"/><path fill="#ffbf00" d="M 270.175781 118.46875 C 270.273438 118.867188 270.675781 119.105469 271.074219 119.007812 C 273.625 118.382812 275.457031 117.148438 276.507812 115.347656 C 278.113281 112.605469 277.296875 109.578125 277.261719 109.449219 C 277.152344 109.058594 276.746094 108.828125 276.347656 108.933594 C 276.308594 108.945312 276.269531 108.960938 276.234375 108.976562 C 275.910156 109.125 275.734375 109.492188 275.828125 109.847656 C 275.835938 109.871094 276.511719 112.421875 275.21875 114.613281 C 274.371094 116.046875 272.859375 117.042969 270.71875 117.570312 C 270.320312 117.671875 270.078125 118.070312 270.175781 118.46875 Z M 270.175781 118.46875 " fill-opacity="1" fill-rule="nonzero"/></svg>